<svg width="300px" height="100px" viewBox="0 0 300 100" fill="none" xmlns="http://www.w3.org/2000/svg">
  <path fill="black" d="M93.45,74.58c20.48-10.1,42.88-21.25,67.2-33.45c24.32-12.2,42.47-21.35,54.45-27.45
  c11.98-6.1,18.48-9.6,19.5-10.4c1.02-0.8,0.43-0.9-1.75-0.3c-3.17,0.8-9.98,2.88-20.45,6.25c-10.47,3.37-24.88,8.72-43.25,16.05
  c-18.38,7.33-35.32,14.05-50.8,20.15c-15.48,6.1-27.55,10.85-36.2,14.25C72.65,63.03,61.1,67.48,51,70.58
  C40.9,73.68,33.08,75.45,27.55,75.9c-5.52,0.45-10.38,0.33-14.55-0.35c-4.17-0.68-6.98-1.63-8.45-2.85
  c6.13,3.72,13.88,4.95,23.25,3.7C37.1,75.17,54.72,70.48,93.45,74.58z"/>
</svg>
